<svg xmlns="http://www.w3.org/2000/svg" width="100" height="120" viewBox="0 0 100 120"><defs><style>.a{fill:#fcbc2c;}</style></defs><g transform="translate(-44.001)"><g transform="translate(91.763 35.619)"><path class="a" d="M282.239,152H248.354a2.353,2.353,0,1,0,0,4.706h33.884a2.353,2.353,0,1,0,0-4.706Z" transform="translate(-246.001 -152)"/></g><g transform="translate(115.693 46.868)"><g transform="translate(0)"><path class="a" d="M351.958,200.69a2.352,2.352,0,1,0,.689,1.664A2.371,2.371,0,0,0,351.958,200.69Z" transform="translate(-347.941 -200.001)"/></g></g><g transform="translate(91.646 10.118)"><path class="a" d="M250.008,43.69a2.352,2.352,0,1,0,.689,1.664A2.371,2.371,0,0,0,250.008,43.69Z" transform="translate(-245.991 -43.001)"/></g><g transform="translate(91.668 46.867)"><path class="a" d="M262.443,200H248.354a2.353,2.353,0,0,0,0,4.706h14.089a2.353,2.353,0,0,0,0-4.706Z" transform="translate(-246.001 -200)"/></g><g transform="translate(91.763 60.928)"><path class="a" d="M282.239,260H248.354a2.353,2.353,0,0,0,0,4.706h33.884a2.353,2.353,0,0,0,0-4.706Z" transform="translate(-246.001 -260)"/></g><g transform="translate(115.693 72.176)"><g transform="translate(0)"><path class="a" d="M351.958,308.69a2.352,2.352,0,1,0,.689,1.664A2.371,2.371,0,0,0,351.958,308.69Z" transform="translate(-347.941 -308.001)"/></g></g><g transform="translate(91.668 72.176)"><path class="a" d="M262.443,308H248.354a2.353,2.353,0,0,0,0,4.706h14.089a2.353,2.353,0,0,0,0-4.706Z" transform="translate(-246.001 -308)"/></g><g transform="translate(91.763 86.236)"><path class="a" d="M282.239,368H248.354a2.353,2.353,0,0,0,0,4.706h33.884a2.353,2.353,0,0,0,0-4.706Z" transform="translate(-246.001 -368)"/></g><g transform="translate(115.693 97.411)"><g transform="translate(0)"><path class="a" d="M351.958,416.69a2.352,2.352,0,1,0,.689,1.664A2.371,2.371,0,0,0,351.958,416.69Z" transform="translate(-347.941 -416.001)"/></g></g><g transform="translate(91.668 97.41)"><path class="a" d="M262.443,416H248.354a2.353,2.353,0,1,0,0,4.706h14.089a2.353,2.353,0,0,0,0-4.706Z" transform="translate(-246.001 -416)"/></g><g transform="translate(44.001)"><path class="a" d="M132.5,9.141H114.488a14.5,14.5,0,0,0-10-3.985h-2.066a9.46,9.46,0,0,0-16.849,0H83.506a14.5,14.5,0,0,0-10,3.985H55.5A11.477,11.477,0,0,0,44,20.568v88A11.477,11.477,0,0,0,55.5,120h77A11.477,11.477,0,0,0,144,108.572v-88A11.476,11.476,0,0,0,132.5,9.141Zm-49,.7h3.676a2.356,2.356,0,0,0,2.273-1.72,4.725,4.725,0,0,1,9.092,0,2.356,2.356,0,0,0,2.273,1.72h3.671a9.777,9.777,0,0,1,9.753,8.906H73.752A9.777,9.777,0,0,1,83.506,9.844Zm55.778,98.729a6.769,6.769,0,0,1-6.783,6.74h-77a6.769,6.769,0,0,1-6.783-6.74v-88a6.769,6.769,0,0,1,6.783-6.74h14.7A14.252,14.252,0,0,0,69,19.571v1.523a2.351,2.351,0,0,0,2.358,2.344h45.278A2.351,2.351,0,0,0,119,21.094V19.571a14.253,14.253,0,0,0-1.2-5.742H132.5a6.769,6.769,0,0,1,6.783,6.74Z" transform="translate(-44.001)"/></g><g transform="translate(58.416 34.353)"><path class="a" d="M125.768,147.356a2.353,2.353,0,0,0-3.328,0l-10.062,10.062-3.1-3.1a2.353,2.353,0,0,0-3.328,3.328l4.764,4.764a2.353,2.353,0,0,0,3.328,0l11.726-11.726A2.353,2.353,0,0,0,125.768,147.356Z" transform="translate(-105.261 -146.667)"/></g><g transform="translate(59.574 86.116)"><g transform="translate(0)"><path class="a" d="M123.649,368H112.354A2.353,2.353,0,0,0,110,370.353v11.295A2.353,2.353,0,0,0,112.354,384h11.295A2.353,2.353,0,0,0,126,381.648V370.353A2.353,2.353,0,0,0,123.649,368ZM121.3,379.295h-6.589v-6.589H121.3Z" transform="translate(-110.001 -368)"/></g></g><g transform="translate(59.574 60.9)"><g transform="translate(0)"><path class="a" d="M123.649,260H112.354A2.353,2.353,0,0,0,110,262.353v11.295A2.353,2.353,0,0,0,112.354,276h11.295A2.353,2.353,0,0,0,126,273.648V262.353A2.353,2.353,0,0,0,123.649,260ZM121.3,271.295h-6.589v-6.589H121.3Z" transform="translate(-110.001 -260)"/></g></g></g></svg>