<svg xmlns="http://www.w3.org/2000/svg" width="120" height="120" viewBox="0 0 120 120"><defs><style>.a{fill:#fcbc2c;}</style></defs><g transform="translate(-2 -2)"><g transform="translate(2 2)"><path class="a" d="M120,62a2,2,0,0,0-2,2V84a6,6,0,0,1-6,6h-2V86a8,8,0,0,0-6.228-7.786A9.9,9.9,0,0,0,106,72V64A10.012,10.012,0,0,0,96,54H88a2,2,0,0,0-2,2V72a9.9,9.9,0,0,0,2.228,6.214A8,8,0,0,0,82,86v4H76V87.631A6,6,0,0,0,80,82V80a6,6,0,0,0-12,0v2a6,6,0,0,0,4,5.632V90H64V48h48a2,2,0,1,0,0-4h-6V40a7.92,7.92,0,0,0-1.656-4.818A14.022,14.022,0,0,0,110,24,17.968,17.968,0,0,0,79.864,10.747,6,6,0,1,0,74,18a5.924,5.924,0,0,0,1.09-.11A17.9,17.9,0,0,0,74,24a14.026,14.026,0,0,0,5.656,11.182A7.92,7.92,0,0,0,78,40v4H64V8a2,2,0,0,0-4,0V44H24V40a4,4,0,0,1,4-4H40a4,4,0,0,1,3.748,2.67,2,2,0,0,0,3.77-1.34,8,8,0,0,0-5.754-5.106A9.894,9.894,0,0,0,44,26V18a10,10,0,0,0-20,0v8a9.9,9.9,0,0,0,2.228,6.214A8,8,0,0,0,20,40v4H6V32a2,2,0,0,0-4,0V84A10.012,10.012,0,0,0,12,94H43.114l-4.5,12H30a10.012,10.012,0,0,0-10,10,2,2,0,0,0,2,2H74a2,2,0,1,0,0-4H24.342A6.012,6.012,0,0,1,30,110H94a6.012,6.012,0,0,1,5.658,4H82a2,2,0,1,0,0,4h20a2,2,0,0,0,2-2,10.012,10.012,0,0,0-10-10H85.386l-4.5-12H112a10.012,10.012,0,0,0,10-10V64A2,2,0,0,0,120,62ZM72,80a2,2,0,0,1,4,0v2a2,2,0,0,1-4,0Zm0-68a2,2,0,1,1,2,2A2,2,0,0,1,72,12Zm6,12a14,14,0,0,1,28,0,10.024,10.024,0,0,1-4.972,8.6,7.823,7.823,0,0,0-1.256-.4A9.9,9.9,0,0,0,102,26V22a2,2,0,0,0-2-2,7.714,7.714,0,0,1-5.414-2.242l-1.172-1.172a2,2,0,0,0-2.828,0l-1.172,1.172A7.714,7.714,0,0,1,84,20a2,2,0,0,0-2,2v4a9.9,9.9,0,0,0,2.228,6.214,7.821,7.821,0,0,0-1.256.4A10.024,10.024,0,0,1,78,24Zm8,2V23.824a11.774,11.774,0,0,0,6-3,11.774,11.774,0,0,0,6,3V26a6,6,0,0,1-12,0ZM82,40a4,4,0,0,1,4-4H98a4,4,0,0,1,4,4v4H82ZM28,26V20H40v6a6,6,0,0,1-12,0Zm6-14a6.012,6.012,0,0,1,5.658,4H28.342A6.012,6.012,0,0,1,34,12ZM90,72V66h12v6a6,6,0,0,1-12,0Zm0-14h6a6.012,6.012,0,0,1,5.658,4H90ZM6,84V48H60V90H46V86a8,8,0,0,0-6.228-7.786A9.9,9.9,0,0,0,42,72V68a2,2,0,0,0-2-2,17.769,17.769,0,0,1-9.884-3l-1-.67a2,2,0,0,0-2.524.25l-4,4A2,2,0,0,0,22,68v4a9.9,9.9,0,0,0,2.228,6.214,7.823,7.823,0,0,0-1.12.348A10.046,10.046,0,0,1,18,69.881,14,14,0,0,1,32.676,56.016,14.458,14.458,0,0,1,46,70.579a14.985,14.985,0,0,0,4.418,10.666l2.168,2.168a2,2,0,1,0,2.828-2.828l-2.168-2.168A11.016,11.016,0,0,1,50,70.579,18.278,18.278,0,0,0,32.864,52.02a17.838,17.838,0,0,0-11.45,3.438,5.988,5.988,0,1,0-6.342,8.448A18,18,0,0,0,14,69.849,13.982,13.982,0,0,0,19.722,81.1,7.926,7.926,0,0,0,18,86v4H12a6,6,0,0,1-6-6ZM26,72V68.827l2.258-2.258A21.736,21.736,0,0,0,38,69.909V72a6,6,0,0,1-12,0Zm0,10H38a4,4,0,0,1,4,4v4H22V86A4,4,0,0,1,26,82ZM16,60a2,2,0,1,1,2-2A2,2,0,0,1,16,60Zm65.114,46H42.886l4.5-12H76.614ZM86,90V86a4,4,0,0,1,4-4h12a4,4,0,0,1,4,4v4Z" transform="translate(-2 2.002)"/><path class="a" d="M112,2H12A10.014,10.014,0,0,0,2,12V28.009a2,2,0,1,0,4,0V12a6,6,0,0,1,6-6H112a6,6,0,0,1,6,6V60.02a2,2,0,1,0,4,0V12A10.014,10.014,0,0,0,112,2Z" transform="translate(-2 -2)"/><path class="a" d="M35,35a6,6,0,1,0,6-6A6,6,0,0,0,35,35Zm8,0a2,2,0,1,1-2-2A2,2,0,0,1,43,35Z" transform="translate(30.997 24.998)"/><path class="a" d="M18,12a6,6,0,1,0-6,6A6,6,0,0,0,18,12Zm-8,0a2,2,0,1,1,2,2A2,2,0,0,1,10,12Z" transform="translate(2.003 2.003)"/></g></g></svg>